# xmcd
#
# Track frame offsets:
#	150
#	16634
#	36769
#	64961
#	66242
#	91841
#	111659
#	134181
#	167587
#	187309
#	199892
#	217704
#	237883
#	253475
#	273610
#
# Disc length: 3801 seconds
#
# Revision: 1
# Processed by: cddbd v1.5.2PL0 Copyright (c) Steve Scherf et al.
# Submitted via: audiograbber 1.83.01
#
DISCID=ea0ed70f
DTITLE=Mike G - Another Dimension
DYEAR=2001
DGENRE=Rap
TTITLE0=Mike G - Intro
TTITLE1=Mike G - Another Dimension
TTITLE2=Mike G, Lil Jack - Puttn The "Ville" On The Map
TTITLE3=Mike G - Memories......
TTITLE4=Mike G, The Hustla - Smoke I
TTITLE5=Mike G - Imagination Turns Real
TTITLE6=Mike G - The Right Path
TTITLE7=Mike G - Surround Sound
TTITLE8=Mike G, Herron - Throw Ya Hands Up
TTITLE9=Mike G, The Hustla - Lyrical Storm
TTITLE10=Mike G - Imagination Turns Rean (Screwed)
TTITLE11=Mike G, The Hustla, Crystal - Ball'n
TTITLE12=Mike G - Out Of Town Pimp'n
TTITLE13=Mike G - Another Dimension (Radio)
TTITLE14=Mike G - Outro
EXTD=www.RapMusicGuide.com
EXTT0=
EXTT1=
EXTT2=
EXTT3=
EXTT4=
EXTT5=
EXTT6=
EXTT7=
EXTT8=
EXTT9=
EXTT10=
EXTT11=
EXTT12=
EXTT13=
EXTT14=
PLAYORDER=
